<mxfile host="app.diagrams.net" modified="2022-04-25T12:54:45.052Z" agent="5.0 (Windows NT 10.0; Win64; x64) AppleWebKit/537.36 (KHTML, like Gecko) Chrome/100.0.4896.127 Safari/537.36 Edg/100.0.1185.50" etag="92eYhNdNlJ6ejyFE8i7L" version="17.4.0" type="github">
  <diagram id="s0bmbU-EPS6jmhddB0Xf" name="Page-1">
    <mxGraphModel dx="1038" dy="579" grid="1" gridSize="10" guides="1" tooltips="1" connect="1" arrows="1" fold="1" page="1" pageScale="1" pageWidth="850" pageHeight="1100" math="0" shadow="0">
      <root>
        <mxCell id="0" />
        <mxCell id="1" parent="0" />
        <mxCell id="7b6jpE9rd5g6c3AGyqWa-3" value="" style="edgeStyle=orthogonalEdgeStyle;rounded=0;orthogonalLoop=1;jettySize=auto;html=1;" edge="1" parent="1" source="7b6jpE9rd5g6c3AGyqWa-1" target="7b6jpE9rd5g6c3AGyqWa-2">
          <mxGeometry relative="1" as="geometry" />
        </mxCell>
        <mxCell id="7b6jpE9rd5g6c3AGyqWa-1" value="call&amp;nbsp;&lt;span lang=&quot;EN-US&quot; style=&quot;font-size: 11.0pt ; font-family: &amp;#34;calibri&amp;#34; , sans-serif&quot;&gt;setNecessaryJson&amp;nbsp;&lt;/span&gt;" style="rounded=0;whiteSpace=wrap;html=1;" vertex="1" parent="1">
          <mxGeometry x="300" y="140" width="140" height="60" as="geometry" />
        </mxCell>
        <mxCell id="7b6jpE9rd5g6c3AGyqWa-5" value="" style="edgeStyle=orthogonalEdgeStyle;rounded=0;orthogonalLoop=1;jettySize=auto;html=1;" edge="1" parent="1" source="7b6jpE9rd5g6c3AGyqWa-2" target="7b6jpE9rd5g6c3AGyqWa-4">
          <mxGeometry relative="1" as="geometry" />
        </mxCell>
        <mxCell id="7b6jpE9rd5g6c3AGyqWa-2" value="parse arena data,delete unwanted data" style="rounded=0;whiteSpace=wrap;html=1;" vertex="1" parent="1">
          <mxGeometry x="310" y="250" width="120" height="60" as="geometry" />
        </mxCell>
        <mxCell id="7b6jpE9rd5g6c3AGyqWa-4" value="call&amp;nbsp;userDeckAndStatsUpdate&lt;br&gt;createSimulation" style="rounded=0;whiteSpace=wrap;html=1;" vertex="1" parent="1">
          <mxGeometry x="285" y="350" width="170" height="60" as="geometry" />
        </mxCell>
      </root>
    </mxGraphModel>
  </diagram>
</mxfile>
